<svg fill="rgb(54, 239, 91)" viewBox="0 0 24 24" xmlns="http://www.w3.org/2000/svg" stroke="rgb(54, 239, 91)" stroke-width="2.4"><g id="SVGRepo_bgCarrier" stroke-width="0"></g><g id="SVGRepo_tracerCarrier" stroke-linecap="round" stroke-linejoin="round" stroke="rgb(54, 239, 91)" stroke-width="3.072"><path d="M17,8H7a1,1,0,0,0-.768,1.641l5,6a1,1,0,0,0,1.536,0l5-6A1,1,0,0,0,17,8Zm-5,5.438L9.135,10h5.73Z"></path></g><g id="SVGRepo_iconCarrier"><path d="M17,8H7a1,1,0,0,0-.768,1.641l5,6a1,1,0,0,0,1.536,0l5-6A1,1,0,0,0,17,8Zm-5,5.438L9.135,10h5.73Z"></path></g></svg>