<svg fill="rgb(44, 79, 94)" height="200px" width="200px" version="1.1" xmlns="http://www.w3.org/2000/svg" viewBox="0 0 512 512" xmlns:xlink="http://www.w3.org/1999/xlink" enable-background="new 0 0 512 512"><g id="SVGRepo_bgCarrier" stroke-width="0"></g><g id="SVGRepo_tracerCarrier" stroke-linecap="round" stroke-linejoin="round"></g><g id="SVGRepo_iconCarrier"> <g> <g> <path d="m422.1,96.1c-0.3,10.6 7.5,20.9 18.2,20.9 13.2,0 21.4-7.7 22.5-18.1 1.2-10.7-2.2-20.9-9.8-29.4-26.3-29.5-106.6-33.7-135.8-34.3v40.9c47.9,1 96.2,10.2 104.9,20z"></path> <path d="m71.6,116.9c10.8,0 18.6-10.3 18.2-20.9 8.7-9.8 57-19 104.9-20v-40.8c-29.1,0.5-109.5,4.7-135.7,34.2-7.6,8.5-10.9,18.7-9.8,29.4 1.1,10.5 9.2,18.1 22.4,18.1z"></path> <path d="m422.1,177.1c-0.3,10.6 7.5,19.8 18.2,20.9 12.1,1.3 21.4-7.7 22.5-18.1 1.2-10.7-2.2-20.9-9.8-29.4-26.3-29.5-106.6-33.7-135.8-34.3v40.9c47.9,1 96.3,10.2 104.9,20z"></path> <path d="m59,150.5c-7.5,8.5-10.9,18.7-9.8,29.4 1.1,10.5 10.4,19.4 22.5,18.1 10.7-1.1 18.6-10.3 18.2-20.9 8.7-9.8 57.1-19 104.9-20v-40.9c-29.2,0.6-109.6,4.8-135.8,34.3z"></path> <path d="m89.9,258.2c8.7-9.8 57.3-19.1 105.3-20-0.3-2.3-0.4-40.9-0.4-40.9-29.2,0.5-109.5,4.7-135.8,34.3-7.5,8.5-10.9,18.7-9.8,29.4 1.1,10.5 10,18.2 20.3,18.2 12.3,5.68434e-14 20.7-10.5 20.4-21z"></path> <path d="m453.1,231.6c-26.3-29.5-106.7-33.7-135.8-34.3 0,0-0.2,38.6-0.4,40.9 48,0.9 96.6,10.2 105.3,20-0.3,10.6 8.1,21 20.4,21 10.3,0 19.2-7.8 20.3-18.2 1.1-10.8-2.3-20.9-9.8-29.4z"></path> <path d="m256,251.7c11.3,0 20.4-9.1 20.4-20.4v-199.9c0-11.3-9.1-20.4-20.4-20.4-11.3,0-20.4,9.1-20.4,20.4v199.9c2.84217e-14,11.3 9.1,20.4 20.4,20.4z"></path> <path d="m246.1,398.7h19.8c11.3,0 20.4-9.1 20.4-20.4s-9.1-20.4-20.4-20.4h-19.8c-11.3,0-20.4,9.1-20.4,20.4s9.1,20.4 20.4,20.4z"></path> <path d="m359.9,386.5c-28.4,0-52.7,15.3-62.3,36.9h-83.2c-9.6-21.5-33.9-36.9-62.3-36.9-36.8,0-66.8,25.7-66.8,57.3 0,31.6 30,57.3 66.8,57.3 28.4,0 52.7-15.3 62.3-36.9h83.2c9.6,21.5 33.9,36.9 62.3,36.9 36.8,0 66.8-25.7 66.8-57.3 0-31.7-30-57.3-66.8-57.3z"></path> <path d="m246.1,326.3h19.8c11.3,0 20.4-9.1 20.4-20.4 0-11.3-9.1-20.4-20.4-20.4h-19.8c-11.3,0-20.4,9.1-20.4,20.4 2.84217e-14,11.3 9.1,20.4 20.4,20.4z"></path> </g> </g> </g></svg>